<svg width="1440" height="466" viewBox="0 0 1440 466" fill="none" xmlns="http://www.w3.org/2000/svg">
<path d="M483.5 104.5C378.871 10.7931 639 -48 -502 -95.5L-487 -210L-360 -234.5L1638.45 -253C1640.99 -80.2487 1777.12 -311.454 1790.5 -201C1807.22 -62.9323 2300.13 -61.6673 2161 62C2021.87 185.667 1170.17 625.431 986.206 403.322C802.239 181.213 683.211 283.363 483.5 104.5Z" fill="url(#paint0_linear)"/>
<path d="M707.234 -6.47153C640.641 -82.2222 806.204 -129.749 80 -168.147L89.547 -260.707L170.378 -280.512L1501.54 -289C1503.15 -149.351 1541.4 -278.858 1549.91 -189.569C1560.55 -77.9584 1780.34 -40.8277 1774.9 -40.8277C1755.81 -40.8277 1144.28 414.638 1027.19 235.09C910.099 55.5415 834.343 138.118 707.234 -6.47153Z" fill="url(#paint1_linear)"/>
<path d="M549.5 -198.5C444.871 -292.207 705 -351 -436 -398.5L-421 -513L-294 -537.5L1704.45 -556C1706.49 -417.035 1712.33 -148.413 1721.51 8.83887C1985.48 -102.387 2224.02 -238.055 2227 -241C2233.08 -247.003 1745.5 238.389 1728.78 100.322C1726.16 78.7196 1723.74 47.0707 1721.51 8.83887C1447.42 124.326 1145.92 213.464 1052.21 100.322C868.239 -121.787 749.211 -19.637 549.5 -198.5Z" fill="url(#paint2_linear)"/>
<defs>
<linearGradient id="paint0_linear" x1="805.5" y1="465.006" x2="805.5" y2="-253" gradientUnits="userSpaceOnUse">
<stop stop-color="#48C7F0"/>
<stop offset="1" stop-color="#623695"/>
</linearGradient>
<linearGradient id="paint1_linear" x1="1008.92" y1="-272.833" x2="860.101" y2="126.078" gradientUnits="userSpaceOnUse">
<stop stop-color="#623695"/>
<stop offset="1" stop-color="#48C7F0"/>
</linearGradient>
<linearGradient id="paint2_linear" x1="1023.5" y1="-528" x2="871.5" y2="-10.4993" gradientUnits="userSpaceOnUse">
<stop stop-color="#623695"/>
<stop offset="1" stop-color="#48C7F0"/>
</linearGradient>
</defs>
</svg>
