<svg width="170" height="33" viewBox="0 0 170 33" fill="none" xmlns="http://www.w3.org/2000/svg">
<path d="M54.6332 10.8459C55.9186 10.8459 57.204 11.087 58.4091 11.6493C59.6142 12.1314 60.6586 12.8544 61.462 13.7382C62.3457 14.6219 63.0688 15.586 63.5508 16.791C64.0328 17.9961 64.3542 19.2012 64.3542 20.567C64.3542 21.8524 64.1132 23.1378 63.5508 24.3429C63.0688 25.4677 62.3457 26.5121 61.462 27.4761C60.5782 28.3599 59.6142 29.0829 58.4091 29.565C57.2843 30.047 55.9989 30.288 54.6332 30.288C53.2674 30.288 51.982 30.047 50.8572 29.565C49.6521 29.0829 48.6881 28.3599 47.724 27.4761C47.3223 27.0744 46.9206 26.5924 46.5189 26.03C46.1975 25.548 45.8762 24.9856 45.6352 24.3429C45.1531 23.1378 44.8318 21.9327 44.8318 20.567C44.8318 19.2815 45.0728 17.9961 45.6352 16.791C46.1172 15.586 46.8403 14.6219 47.724 13.7382C48.6077 12.8544 49.6521 12.1314 50.8572 11.6493C52.0623 11.087 53.2674 10.8459 54.6332 10.8459ZM54.6332 26.8334C55.5169 26.8334 56.3203 26.6727 57.0433 26.3514C57.7664 26.03 58.4091 25.548 59.0518 24.9856C59.3732 24.6643 59.6142 24.4233 59.7749 24.0216C60.0159 23.7002 60.1766 23.2985 60.3372 22.8968C60.4979 22.4951 60.6586 22.1738 60.7389 21.6917C60.8193 21.29 60.8193 20.8883 60.8193 20.4063C60.8193 19.5226 60.6586 18.7192 60.3372 17.9961C60.1766 17.5944 60.0159 17.2731 59.7749 16.8714C59.5338 16.55 59.2928 16.2287 59.0518 15.9073C58.7304 15.586 58.4894 15.3449 58.0877 15.1843C57.7664 14.9432 57.3647 14.7826 56.963 14.6219C56.2399 14.3005 55.4365 14.1399 54.5528 14.1399C54.1511 14.1399 53.6691 14.2202 53.2674 14.2202C52.8657 14.3005 52.464 14.4612 52.0623 14.6219C51.6606 14.7826 51.3393 14.9432 50.9376 15.1843C50.6162 15.4253 50.2948 15.6663 49.9735 15.9073C49.4111 16.55 48.9291 17.1927 48.6077 17.9158C48.2864 18.7192 48.1257 19.5226 48.1257 20.326C48.1257 21.2097 48.2864 22.0131 48.6077 22.7361C48.9291 23.4592 49.4111 24.1019 49.9735 24.7446C50.6162 25.307 51.2589 25.789 51.982 26.1104C52.8657 26.6727 53.7494 26.8334 54.6332 26.8334Z" fill="black"/>
<path d="M83.8767 24.825C84.3587 25.066 84.68 25.4677 84.7604 26.03C84.8407 26.5924 84.68 27.0745 84.198 27.4762C83.8767 27.7975 83.6356 28.0385 83.2339 28.2795C82.9126 28.5206 82.5109 28.7616 82.1895 28.9223C80.7434 29.7256 79.1367 30.1273 77.4495 30.1273C76.0838 30.1273 74.7983 29.8863 73.6736 29.4043C72.4685 28.9223 71.4241 28.1992 70.6207 27.3155C69.737 26.4317 69.0139 25.4677 68.5319 24.2626C68.0499 23.1378 67.8088 21.8524 67.8088 20.4867C67.8088 19.1209 68.0499 17.8355 68.5319 16.7107C69.0139 15.5056 69.737 14.4612 70.6207 13.6578C71.5044 12.7741 72.4685 12.0511 73.6736 11.569C74.8787 11.087 76.0838 10.7656 77.4495 10.7656C79.217 10.7656 80.7434 11.1673 82.1895 11.9707C82.9929 12.3724 83.6356 12.9348 84.198 13.4168C84.5997 13.8185 84.7604 14.3005 84.68 14.8629C84.5997 15.4253 84.2783 15.827 83.7963 16.1483C83.475 16.309 83.1536 16.3894 82.7519 16.309C82.4305 16.2287 82.1092 16.068 81.7878 15.827C81.3861 15.4253 80.9041 15.0236 80.3417 14.7826C79.458 14.3005 78.4939 14.0595 77.3692 14.0595C76.4855 14.0595 75.6821 14.2202 74.959 14.5416C74.236 14.8629 73.5933 15.2646 72.9505 15.9073C72.3882 16.4697 71.9061 17.1124 71.5848 17.9158C71.2634 18.6389 71.1027 19.5226 71.1027 20.4063C71.1027 21.29 71.2634 22.0934 71.5848 22.8165C71.9061 23.5395 72.3078 24.1822 72.9505 24.825C73.5933 25.4677 74.236 25.8694 74.959 26.1907C75.6821 26.5121 76.4855 26.6728 77.3692 26.6728C78.4939 26.6728 79.458 26.4317 80.3417 25.9497C80.8238 25.7087 81.3058 25.307 81.7075 24.9053C82.0288 24.6643 82.3502 24.5036 82.6716 24.4233C83.2339 24.5839 83.5553 24.6643 83.8767 24.825Z" fill="black"/>
<path d="M105.97 12.9347V20.6472C105.97 21.9327 105.809 23.2181 105.407 24.3428C105.166 24.9052 104.925 25.4676 104.684 26.0299C104.443 26.512 104.122 26.994 103.72 27.4761C102.997 28.3598 102.114 29.0828 101.069 29.5649C100.025 30.0469 98.8197 30.2879 97.4539 30.2879C96.8112 30.2879 96.1685 30.2076 95.5258 30.1272C94.9634 29.9666 94.401 29.8059 93.8387 29.5649C92.7943 29.0828 91.9105 28.3598 91.1875 27.4761C90.4644 26.5923 89.9021 25.5479 89.5004 24.3428C89.0987 23.1377 88.938 21.9327 88.938 20.6472V12.9347C88.938 12.4526 89.0987 12.051 89.42 11.7296C89.7414 11.4082 90.1431 11.2476 90.6251 11.2476C91.1071 11.2476 91.5088 11.4082 91.8302 11.7296C92.1516 12.051 92.3122 12.4526 92.3122 12.9347V20.5669C92.3122 21.3703 92.3926 22.1737 92.6336 22.9771C92.7943 23.7001 93.1156 24.4232 93.5977 24.9855C93.9994 25.5479 94.4814 26.0299 95.2044 26.3513C95.7668 26.6727 96.5702 26.8333 97.4539 26.8333C98.3377 26.8333 99.0607 26.6727 99.7034 26.3513C100.266 26.0299 100.828 25.6282 101.31 24.9855C101.712 24.4232 102.033 23.7001 102.274 22.9771C102.515 22.1737 102.596 21.3703 102.596 20.5669V12.9347C102.596 12.4526 102.756 12.051 103.078 11.7296C103.399 11.4082 103.801 11.2476 104.283 11.2476C104.765 11.2476 105.166 11.4082 105.488 11.7296C105.729 12.051 105.97 12.4526 105.97 12.9347Z" fill="black"/>
<path d="M115.53 23.2181C115.691 23.9412 116.012 24.5035 116.494 25.0659C116.896 25.6283 117.458 26.03 118.181 26.3513C118.503 26.512 118.905 26.6727 119.387 26.753C119.788 26.8334 120.11 27.0744 120.431 27.3957C120.672 27.7171 120.833 28.1188 120.833 28.5205C120.833 29.0829 120.592 29.4846 120.19 29.8862C119.788 30.2879 119.226 30.3683 118.744 30.2076C118.423 30.1273 118.101 30.0469 117.78 29.9666C117.458 29.8862 117.137 29.7256 116.896 29.6452C116.334 29.4042 115.771 29.0829 115.37 28.7615C114.888 28.4401 114.486 28.0384 114.084 27.6367C113.361 26.753 112.799 25.789 112.397 24.6642C112.156 24.1018 112.076 23.5395 111.995 22.9771C111.915 22.4147 111.915 21.772 111.915 21.0489V4.82045C111.915 4.33842 112.076 3.93673 112.397 3.53503C112.718 3.21367 113.12 2.97266 113.682 2.97266C114.165 2.97266 114.566 3.13333 114.968 3.53503C115.289 3.85639 115.45 4.33842 115.45 4.82045V20.9686C115.45 21.3703 115.45 21.772 115.53 22.1737C115.37 22.495 115.45 22.8967 115.53 23.2181Z" fill="black"/>
<path d="M129.108 5.38276C129.108 5.94513 128.867 6.50751 128.465 6.9092C128.063 7.3109 127.581 7.55192 127.019 7.55192C126.456 7.55192 125.894 7.3109 125.492 6.9092C125.091 6.50751 124.85 6.02547 124.85 5.38276C124.85 4.82039 125.091 4.33835 125.492 3.93666C125.894 3.53496 126.376 3.29395 127.019 3.29395C127.581 3.29395 128.063 3.53496 128.465 3.93666C128.947 4.33835 129.108 4.82039 129.108 5.38276ZM127.019 10.7655C126.537 10.7655 126.055 10.9262 125.733 11.3279C125.332 11.7295 125.171 12.1312 125.171 12.6936V28.3597C125.171 28.9221 125.332 29.3238 125.733 29.7255C126.135 30.1272 126.537 30.2879 127.019 30.2879C127.581 30.2879 127.983 30.1272 128.385 29.7255C128.786 29.3238 128.947 28.9221 128.947 28.3597V12.6936C128.947 12.1312 128.786 11.7295 128.385 11.3279C128.063 11.0065 127.581 10.7655 127.019 10.7655Z" fill="black"/>
<path d="M150.719 20.567C150.719 19.2012 150.96 17.9961 151.442 16.791C151.924 15.5859 152.647 14.6219 153.531 13.7381C154.414 12.8544 155.459 12.2117 156.584 11.6493C157.789 11.1673 158.994 10.9263 160.359 10.9263C161.645 10.9263 162.93 11.1673 164.055 11.6493C165.18 12.1314 166.224 12.8544 167.108 13.6578C167.992 14.5415 168.634 15.5056 169.197 16.7107C169.679 17.8354 170 19.1209 170 20.4063V20.4866V28.1188C170 28.6009 169.839 29.0829 169.518 29.4043C169.197 29.7256 168.715 29.9666 168.233 29.9666C167.751 29.9666 167.349 29.8059 167.028 29.4043C166.706 29.0829 166.546 28.6009 166.546 28.1188V27.7171C165.742 28.4402 164.778 29.0829 163.734 29.4846C162.689 29.9666 161.565 30.1273 160.44 30.1273C159.074 30.1273 157.869 29.8863 156.664 29.4043C155.459 28.9222 154.495 28.1992 153.611 27.3154C152.727 26.4317 152.004 25.3873 151.522 24.2626C150.96 23.2181 150.719 21.9327 150.719 20.567ZM154.173 20.567C154.173 21.3703 154.334 22.1737 154.655 22.9771C154.977 23.7002 155.378 24.4232 155.941 24.9053C156.503 25.4676 157.146 25.9497 157.869 26.271C158.592 26.5924 159.395 26.7531 160.279 26.7531C161.163 26.7531 161.966 26.5924 162.689 26.271C163.412 25.9497 164.055 25.4676 164.617 24.9053C165.18 24.3429 165.581 23.7002 165.903 22.9771C166.224 22.2541 166.385 21.4507 166.385 20.567C166.385 19.6832 166.224 18.8798 165.903 18.1568C165.581 17.4337 165.18 16.791 164.617 16.2286C164.055 15.6663 163.412 15.2646 162.689 14.9432C161.966 14.6219 161.163 14.4612 160.279 14.4612C159.395 14.4612 158.592 14.6219 157.869 14.9432C157.146 15.2646 156.423 15.7466 155.86 16.2286C155.298 16.791 154.896 17.4337 154.495 18.1568C154.334 18.9602 154.173 19.7636 154.173 20.567Z" fill="black"/>
<path d="M139.471 21.6114C138.909 21.3704 138.266 21.1293 137.623 20.808C136.981 20.4866 136.418 20.1653 135.936 19.7636C135.454 19.3619 135.053 18.8799 134.731 18.3175C134.41 17.7551 134.249 17.0321 134.249 16.2287C134.249 15.3449 134.41 14.6219 134.731 13.9792C135.053 13.3365 135.535 12.7741 136.097 12.2921C136.659 11.81 137.382 11.4887 138.186 11.2476C138.989 11.0066 139.793 10.8459 140.757 10.8459C141.319 10.8459 141.962 10.9263 142.524 11.0066C143.087 11.087 143.649 11.2476 144.211 11.4887C144.774 11.7297 145.175 11.9707 145.657 12.2921C146.059 12.6134 146.38 13.0151 146.621 13.4971C146.782 13.8185 146.862 14.2202 146.782 14.5415C146.702 14.8629 146.621 15.1843 146.38 15.3449C146.139 15.586 145.898 15.7466 145.577 15.827C145.256 15.9073 144.934 15.9073 144.613 15.7466C144.051 15.2646 143.488 14.8629 142.926 14.6219C142.363 14.3809 141.721 14.2202 140.917 14.2202C140.435 14.2202 140.034 14.2202 139.632 14.3005C139.23 14.3809 138.909 14.4612 138.588 14.7022C138.266 14.8629 138.106 15.1039 137.864 15.3449C137.704 15.586 137.623 15.9073 137.623 16.309C137.623 16.6304 137.704 16.9517 137.945 17.1927C138.106 17.4338 138.427 17.6748 138.748 17.8354C139.07 17.9961 139.471 18.1568 139.873 18.3175C140.355 18.4782 140.837 18.6388 141.319 18.7995C142.122 19.0405 142.926 19.3619 143.729 19.6832C144.452 20.0046 145.175 20.4063 145.738 20.808C146.3 21.29 146.782 21.7721 147.103 22.4148C147.425 23.0575 147.586 23.7805 147.586 24.6643C147.586 25.4677 147.425 26.1907 147.103 26.9138C146.782 27.6368 146.3 28.1992 145.657 28.6812C145.095 29.1633 144.372 29.565 143.488 29.8863C142.685 30.2077 141.801 30.288 140.837 30.288C140.194 30.288 139.471 30.2077 138.829 30.1273C138.106 29.9666 137.463 29.806 136.9 29.565C136.258 29.3239 135.695 28.9222 135.213 28.5205C134.731 28.1188 134.249 27.5565 133.928 26.9941C133.687 26.5121 133.607 26.03 133.687 25.6283C133.767 25.2266 134.008 24.9053 134.33 24.6643C134.651 24.4233 135.053 24.4233 135.535 24.4233C136.017 24.5036 136.418 24.7446 136.9 25.1463C137.302 25.7087 137.784 26.1104 138.507 26.5121C139.23 26.9138 140.034 27.0744 140.917 27.0744C141.319 27.0744 141.721 26.9941 142.122 26.9138C142.524 26.8334 142.846 26.6727 143.167 26.4317C143.488 26.1907 143.729 26.03 143.89 25.7087C144.051 25.4677 144.131 25.1463 144.131 24.7446C144.131 24.3429 143.97 24.0216 143.649 23.7002C143.328 23.3788 142.926 23.1378 142.524 22.8968C142.042 22.6558 141.56 22.4148 140.998 22.2541C140.435 21.9327 139.953 21.7721 139.471 21.6114Z" fill="black"/>
<path d="M34.0663 19.3617C33.986 19.2814 33.986 19.2814 33.9056 19.201C33.7449 19.0404 33.5843 18.96 33.4236 18.7993C33.3432 18.719 33.2629 18.6387 33.1826 18.5583C33.0219 18.3976 32.8612 18.3173 32.7005 18.1566C32.5398 18.0763 32.4595 17.9156 32.2988 17.8353C32.1382 17.7549 31.9775 17.5943 31.8971 17.5139C31.7365 17.3532 31.5758 17.2729 31.4151 17.1122C30.1297 15.8268 29.1656 14.7824 29.8887 12.6936C31.3348 8.67662 32.9415 9.31933 35.191 8.4356C36.3158 7.95357 36.7978 7.15018 36.7978 6.34679C36.8782 4.65967 35.0304 2.97255 32.8612 4.25797C32.6202 4.41865 32.4595 4.57933 32.2185 4.82034C31.8971 5.30238 31.6561 6.02543 31.6561 7.06984C31.5758 9.07832 29.5673 11.5688 25.711 12.3722C25.3897 12.4526 25.0683 12.4526 24.8273 12.4526C24.747 12.4526 24.6666 12.4526 24.6666 12.4526C24.5863 12.4526 24.5059 12.4526 24.4256 12.4526C24.3453 12.4526 24.3453 12.4526 24.2649 12.4526C23.6222 12.3722 21.6137 11.7295 21.3727 11.6492C20.1676 11.0868 19.6856 10.2031 19.6856 10.2031C18.6412 7.87323 18.6412 6.42712 19.3642 5.22204C19.8463 4.41865 20.971 3.6956 21.0514 3.05289C21.0514 2.97255 21.0514 2.81187 21.0514 2.73153C21.0514 2.57085 21.0514 2.49051 21.0514 2.32983C20.971 1.60678 20.6497 0.964069 20.0873 0.562374C19.6856 0.160679 19.2036 0 18.7215 0H18.1592C17.6771 0 17.1951 0.160679 16.7934 0.562374C16.3114 0.964069 15.9097 1.60678 15.8293 2.32983C15.8293 2.49051 15.8293 2.57085 15.8293 2.73153C15.8293 2.81187 15.8293 2.97255 15.8293 3.05289C15.9097 3.61526 16.8737 4.41865 17.3558 5.22204C18.0788 6.34679 18.2395 7.79289 17.1951 10.1227C17.1951 10.1227 16.6327 11.0065 15.4276 11.5688C15.1063 11.7295 13.1781 12.2919 12.5354 12.3722C12.4551 12.3722 12.4551 12.3722 12.3747 12.3722C12.2944 12.3722 12.2141 12.3722 12.1337 12.3722C12.0534 12.3722 11.973 12.3722 11.973 12.3722C11.6517 12.3722 11.4107 12.3722 11.0893 12.2919C7.23304 11.4885 5.22456 8.91764 5.14422 6.9895C5.06388 5.94509 4.90321 5.22204 4.58185 4.74001C4.42117 4.49899 4.18015 4.33831 3.93914 4.17763C1.76998 2.89221 -0.0778138 4.57933 0.00252532 6.26645C0.00252532 7.06984 0.48456 7.87323 1.60931 8.35526C3.77846 9.23899 5.7066 8.51594 6.91168 12.6132C7.5544 15.0234 5.06389 17.2729 4.90321 17.4336C4.74253 17.5139 4.58185 17.6746 4.50151 17.7549C4.34083 17.8353 4.26049 17.996 4.09982 18.0763C3.93914 18.237 3.77846 18.3173 3.61778 18.478C3.53744 18.5583 3.45711 18.6387 3.37677 18.719C3.21609 18.8797 3.05541 18.96 2.89473 19.1207C2.81439 19.201 2.81439 19.201 2.73405 19.2814C1.68964 20.2454 1.12727 20.8882 0.966595 20.9685C0.243543 21.7719 0.243543 22.977 0.966595 23.7804C1.28795 24.1017 8.75948 32.5373 18.4002 32.5373C27.9605 32.5373 35.5124 24.1017 35.8338 23.7804C36.5568 22.977 36.5568 21.7719 35.8338 20.9685C35.7534 20.9685 35.1107 20.2454 34.0663 19.3617ZM19.4446 28.2794C19.3642 28.2794 19.2036 28.2794 19.1232 28.2794C18.8822 28.2794 18.6412 28.2794 18.4002 28.2794C18.1592 28.2794 17.9181 28.2794 17.6771 28.2794C17.5968 28.2794 17.4361 28.2794 17.3558 28.2794C12.2944 27.8777 7.79541 24.4231 5.62626 22.4146C5.86728 22.2539 6.10829 22.0129 6.34931 21.7719C8.92016 19.6027 13.4191 16.5498 18.4002 16.5498C23.3812 16.5498 27.8802 19.6831 30.451 21.7719C30.692 22.0129 30.9331 22.1736 31.1741 22.4146C28.9246 24.4231 24.5059 27.8777 19.4446 28.2794Z" fill="url(#paint0_linear)"/>
<defs>
<linearGradient id="paint0_linear" x1="0.65536" y1="2.76889" x2="36.3016" y2="26.5665" gradientUnits="userSpaceOnUse">
<stop stop-color="#04D2FF"/>
<stop offset="0.063894" stop-color="#10BEF2"/>
<stop offset="0.2214" stop-color="#2A91D6"/>
<stop offset="0.3803" stop-color="#3F6CBF"/>
<stop offset="0.538" stop-color="#504FAD"/>
<stop offset="0.6945" stop-color="#5C3AA0"/>
<stop offset="0.8492" stop-color="#632E99"/>
<stop offset="1" stop-color="#652A96"/>
</linearGradient>
</defs>
</svg>
